<svg xmlns="http://www.w3.org/2000/svg" width="24" height="24" viewBox="0 0 24 24">
    <g fill="#FFF">
        <path d="M13.813 12.339v.889h-9.48c-.25 0-.5.084-.687.232l-2.23 1.757V1.524h12.396v4.042l1.313-1.503v-2.73C15.125.698 14.605.19 14 .19H1.23C.603.19.103.698.103 1.333v14.244c0 .444.23.825.625 1.037.167.084.334.127.5.127.23 0 .48-.085.688-.233l2.416-1.947H14c.625 0 1.125-.53 1.125-1.143v-2.35l-.833.953c-.125.127-.292.254-.48.318z" transform="translate(2 3)"/>
        <path d="M3.938 4.74h7.333c.375 0 .666-.296.666-.677 0-.36-.291-.677-.666-.677H3.937c-.374 0-.666.318-.666.677.02.381.312.678.667.678zM11.938 7.28c0-.36-.292-.677-.667-.677H3.937c-.374 0-.666.318-.666.677 0 .381.292.678.667.678h7.333c.375 0 .666-.297.666-.678zM3.292 10.497c0 .381.291.678.666.678h6.334l.229-1.334H3.937c-.354 0-.645.297-.645.656z" transform="translate(2 3)"/>
        <path d="M12.625 5.83L18.53 5.784 18.511 8.302 12.605 8.348z" transform="translate(2 3) rotate(-48.133 15.568 7.066)"/>
        <path d="M19.77 3.64l-1.29-1.185c-.147-.148-.397-.127-.522.021l-.77.89 1.854 1.692.77-.889c.125-.148.105-.402-.041-.529zM11.75 11.873l1.583-.466c.063-.02.125-.063.167-.105l.458-.508L12.104 9.1l-.458.507c-.042.064-.084.127-.084.19l-.27 1.652c-.042.275.208.487.458.423z" transform="translate(2 3)"/>
    </g>
</svg>
