<svg xmlns="http://www.w3.org/2000/svg" width="32" height="32" viewBox="0 0 32 32">
    <g fill="#FBFBFD">
        <path d="M3.16 2.004H6.09V1.002c0-.54.385-1.002.925-1.002s1.002.462 1.002 1.002v1.002h11.407V1.002c0-.54.385-1.002.925-1.002s1.002.462 1.002 1.002v1.002h2.852c1.772 0 3.237 1.464 3.237 3.16v20.502c0 1.773-1.465 3.237-3.237 3.237H9.326C4.24 28.903 0 24.664 0 19.5V5.164c0-1.696 1.464-3.16 3.16-3.16zm18.19 1.927V5.01c0 .54-.463.925-1.002.925-.54 0-.925-.386-.925-.925V3.93H8.016v1.08c0 .54-.463.925-1.002.925-.54 0-.925-.386-.925-.925V3.93H3.16c-.617 0-1.233.617-1.233 1.234v2.081h23.508V5.164c0-.617-.54-1.233-1.233-1.233H21.35zm4.085 5.318H1.927V19.5c0 4.085 3.314 7.4 7.4 7.4h14.875c.693 0 1.233-.54 1.233-1.234V9.25z" transform="translate(2 2)"/>
        <path d="M9.557 18.344c-.385-.385-.385-1.002 0-1.387.386-.386 1.002-.386 1.388 0l1.618 1.618 3.931-3.93c.385-.386 1.002-.386 1.387 0 .386.385.386 1.001 0 1.387l-4.624 4.624c-.385.386-1.002.386-1.387 0l-2.313-2.312z" transform="translate(2 2)"/>
    </g>
</svg>
