<svg xmlns="http://www.w3.org/2000/svg" xmlns:xlink="http://www.w3.org/1999/xlink" width="56" height="56" viewBox="0 0 56 56">
    <defs>
        <filter id="prefix__a" width="129.2%" height="129.2%" x="-14.6%" y="-10.4%" filterUnits="objectBoundingBox">
            <feOffset dy="2" in="SourceAlpha" result="shadowOffsetOuter1"/>
            <feGaussianBlur in="shadowOffsetOuter1" result="shadowBlurOuter1" stdDeviation="2"/>
            <feColorMatrix in="shadowBlurOuter1" values="0 0 0 0 0 0 0 0 0 0 0 0 0 0 0 0 0 0 0.185751748 0"/>
        </filter>
        <rect id="prefix__b" width="48" height="48" x="0" y="0" rx="2"/>
    </defs>
    <g fill="none" fill-rule="evenodd" transform="translate(4 2)">
        <use fill="#000" filter="url(#prefix__a)" xlink:href="#prefix__b"/>
        <use fill="#FFF" xlink:href="#prefix__b"/>
        <g>
            <g fill-rule="nonzero" transform="translate(15 14)">
                <circle cx="10" cy="9" r="9" fill="#00FAD7"/>
                <path fill="#000" d="M9.205 1C4.13 1 0 5.13 0 10.205c0 5.076 4.13 9.205 9.205 9.205 5.076 0 9.205-4.13 9.205-9.205C18.41 5.129 14.28 1 9.205 1zm0 9.684c-.255 0-.48-.224-.48-.479s.225-.48.48-.48.48.225.48.48-.225.48-.48.48zm-8.454-.479c0-4.536 3.591-8.249 8.08-8.445l.035 7.265c-.508.151-.892.63-.892 1.18 0 .537.366 1.007.857 1.17l.035 7.277c-4.505-.18-8.115-3.899-8.115-8.447zm8.866 8.444l-.035-7.275c.49-.164.854-.633.854-1.169 0-.523-.347-.98-.818-1.155l-.035-7.29c4.487.198 8.076 3.91 8.076 8.445 0 4.523-3.571 8.228-8.042 8.444z"/>
            </g>
        </g>
    </g>
</svg>
