<svg xmlns="http://www.w3.org/2000/svg" width="48" height="48" viewBox="0 0 48 48">
    <g fill="none" fill-rule="evenodd">
        <g>
            <path d="M11.355 13.161c.218 0 .41-.191.41-.41 0-.218-.192-.41-.41-.41-.218 0-.41.192-.41.41 0 .219.191.41.41.41zM19.41 3.11C17.67 1.047 14.96.002 11.355.002c-3.568 0-6.267 1.046-8.02 3.108-.887 1.041-1.296 2.095-1.469 2.672H20.85c-.164-.575-.56-1.63-1.44-2.674z" transform="translate(13 8) translate(0 11)"/>
            <path d="M1.79 18.707h19.213l.88-10.694H.83l.96 10.694zm9.565-7.137c.64 0 1.181.541 1.181 1.182 0 .64-.541 1.18-1.181 1.18s-1.182-.54-1.182-1.18c0-.64.542-1.182 1.182-1.182z" transform="translate(13 8) translate(0 11)"/>
            <path fill="#000" fill-rule="nonzero" d="M22.585 7.366c-.073-.079-.176-.124-.283-.124H.408c-.108 0-.212.045-.285.125-.073.08-.11.187-.1.295l1.03 11.465c.018.199.185.351.385.351h19.92c.2 0 .368-.154.384-.354l.944-11.465c.01-.107-.027-.213-.1-.293zm-1.582 11.34H1.79L.83 8.014h21.053l-.88 10.694zM20.582 20.227H2.128c-.213 0-.386.173-.386.386 0 .213.173.385.386.385h18.454c.213 0 .385-.172.385-.385 0-.213-.172-.386-.385-.386z" transform="translate(13 8) translate(0 11)"/>
            <path fill="#000" fill-rule="nonzero" d="M11.355 13.933c.64 0 1.181-.541 1.181-1.181s-.541-1.182-1.181-1.182-1.182.541-1.182 1.182c0 .64.542 1.18 1.182 1.18zm0-1.591c.218 0 .41.191.41.41 0 .218-.192.41-.41.41-.218 0-.41-.192-.41-.41 0-.219.191-.41.41-.41z" transform="translate(13 8) translate(0 11)"/>
        </g>
        <g fill="#0167FB" fill-rule="nonzero">
            <path d="M9.446 8.803c2.427 0 4.402-1.975 4.402-4.402S11.873 0 9.446 0c-2.426 0-4.4 1.974-4.4 4.401 0 2.427 1.974 4.402 4.4 4.402zM.537 16.675h17.818c.156 0 .304-.068.407-.186.102-.118.148-.274.125-.429-.01-.066-.249-1.63-1.551-3.19-1.186-1.423-3.518-3.118-7.89-3.118-4.327 0-6.66 1.694-7.856 3.116C.279 14.426.017 15.987.007 16.053c-.025.155.02.313.122.433s.25.189.408.189z" transform="translate(13 8) translate(2)"/>
            <path d="M2.412 13.56c1.526-1.813 3.893-2.733 7.034-2.733 3.15 0 5.515.905 7.03 2.689.658.776 1.007 1.562 1.183 2.084H1.241c.178-.51.525-1.273 1.17-2.04zM9.446 1.075c1.835 0 3.327 1.492 3.327 3.326 0 1.835-1.492 3.327-3.327 3.327-1.834 0-3.326-1.492-3.326-3.327 0-1.834 1.492-3.326 3.326-3.326z" transform="translate(13 8) translate(2)"/>
        </g>
    </g>
</svg>
