<svg xmlns="http://www.w3.org/2000/svg" width="48" height="48" viewBox="0 0 48 48">
    <g fill="none">
        <g>
            <path fill="#000" d="M1.342 22.05c.017.21.192.37.402.37H27.67c.21 0 .386-.162.402-.373L29.3 5.367c.008-.112-.03-.222-.107-.304-.076-.082-.183-.129-.295-.129h-.989c.01-.106.017-.213.019-.321.014-1.21-.393-2.271-1.18-3.067C25.779.563 24.257 0 22.574 0c-.848 0-1.669.147-2.373.426-2.064.816-2.947 2.32-3.325 3.437-.13.386-.21.75-.26 1.071H.403c-.112 0-.22.047-.296.13-.077.083-.115.193-.106.306l1.34 16.68zM22.573.806c1.47 0 2.782.476 3.603 1.306.64.649.958 1.486.946 2.491-.013 1.06-.564 2.045-1.55 2.772-.976.719-2.316 1.131-3.677 1.131-1.336 0-2.632-.382-3.748-1.104-.066-.043-.142-.064-.219-.064-.058 0-.115.012-.17.037l-1.644.764 1.178-1.84c.048-.075.07-.164.063-.252-.003-.035-.257-3.527 3.142-4.872.61-.241 1.328-.369 2.076-.369zM16.544 5.74c-.002.093-.001.172 0 .232L14.69 8.87c-.097.151-.082.348.036.483.078.09.19.138.303.138.057 0 .115-.012.17-.038l2.701-1.255c1.203.73 2.58 1.115 3.996 1.115 1.552 0 3.027-.458 4.154-1.289.845-.622 1.424-1.41 1.698-2.284h.718l-1.17 15.875H2.116L.84 5.74h15.704zM29.409 23.169H.403c-.222 0-.403.18-.403.403 0 .223.18.403.403.403H29.41c.223 0 .403-.18.403-.403 0-.223-.18-.403-.403-.403z" transform="translate(9 8)"/>
            <path fill="#FFF" d="M17.355 6.047c.007.089-.015.177-.063.252L16.5 7.5l1.258-.125c.054-.025.112-.037.17-.037.077 0 .153.022.22.064 1.115.723 2.41 1.104 3.747 1.104 1.361 0 2.701-.412 3.676-1.13.987-.728 1.538-1.713 1.551-2.773.012-1.004-.306-1.842-.946-2.49-.82-.83-2.134-1.307-3.603-1.307-.748 0-1.466.128-2.076.37-3.4 1.344-3.145 4.836-3.142 4.871z" transform="translate(9 8)"/>
        </g>
        <g fill="#0167FB">
            <path d="M9.446 8.803c2.427 0 4.402-1.975 4.402-4.402S11.873 0 9.446 0c-2.426 0-4.4 1.974-4.4 4.401 0 2.427 1.974 4.402 4.4 4.402zM.537 16.675h17.818c.156 0 .304-.068.407-.186.102-.118.148-.274.125-.429-.01-.066-.249-1.63-1.551-3.19-1.186-1.423-3.518-3.118-7.89-3.118-4.327 0-6.66 1.694-7.856 3.116C.279 14.426.017 15.987.007 16.053c-.025.155.02.313.122.433s.25.189.408.189z" transform="translate(11 13)"/>
            <path d="M2.412 13.56c1.526-1.813 3.893-2.733 7.034-2.733 3.15 0 5.515.905 7.03 2.689.658.776 1.007 1.562 1.183 2.084H1.241c.178-.51.525-1.273 1.17-2.04zM9.446 1.075c1.835 0 3.327 1.492 3.327 3.326 0 1.835-1.492 3.327-3.327 3.327-1.834 0-3.326-1.492-3.326-3.327 0-1.834 1.492-3.326 3.326-3.326z" transform="translate(11 13)"/>
        </g>
    </g>
</svg>
