<svg xmlns="http://www.w3.org/2000/svg" width="48" height="48" viewBox="0 0 48 48">
    <g fill="none" fill-rule="evenodd">
        <path stroke="#000" d="M10 0H39V16H10z" transform="translate(5 10)"/>
        <g fill="#0167FB" fill-rule="nonzero">
            <path d="M9.446 8.803c2.427 0 4.402-1.975 4.402-4.402S11.873 0 9.446 0c-2.426 0-4.4 1.974-4.4 4.401 0 2.427 1.974 4.402 4.4 4.402zM.537 16.675h17.818c.156 0 .304-.068.407-.186.102-.118.148-.274.125-.429-.01-.066-.249-1.63-1.551-3.19-1.186-1.423-3.518-3.118-7.89-3.118-4.327 0-6.66 1.694-7.856 3.116C.279 14.426.017 15.987.007 16.053c-.025.155.02.313.122.433s.25.189.408.189z" transform="translate(5 10) translate(0 11)"/>
            <path d="M2.412 13.56c1.526-1.813 3.893-2.733 7.034-2.733 3.15 0 5.515.905 7.03 2.689.658.776 1.007 1.562 1.183 2.084H1.241c.178-.51.525-1.273 1.17-2.04zM9.446 1.075c1.835 0 3.327 1.492 3.327 3.326 0 1.835-1.492 3.327-3.327 3.327-1.834 0-3.326-1.492-3.326-3.327 0-1.834 1.492-3.326 3.326-3.326z" transform="translate(5 10) translate(0 11)"/>
        </g>
    </g>
</svg>
