<svg xmlns="http://www.w3.org/2000/svg" width="34" height="34" viewBox="0 0 34 34">
    <g fill="none" fill-rule="evenodd" transform="translate(1 1)">
        <path fill="#FFF" fill-rule="nonzero" d="M19.694 10c.876-.001 1.714.35 2.313.97.71-.135 1.39-.388 2.013-.746-.236.713-.732 1.317-1.394 1.702.629-.073 1.242-.236 1.82-.485-.424.618-.96 1.157-1.58 1.593.006.131.01.264.01.397 0 4.065-3.189 8.751-9.018 8.751-1.722.002-3.409-.478-4.858-1.382.251.03.503.043.756.043 1.427.002 2.813-.461 3.936-1.316-1.356-.025-2.546-.883-2.961-2.136.475.088.965.07 1.431-.053-1.479-.29-2.542-1.552-2.542-3.016v-.038c.44.238.932.37 1.435.387-1.393-.903-1.822-2.702-.98-4.107 1.609 1.921 3.983 3.09 6.532 3.213-.219-.914.004-1.876.605-2.61.601-.736 1.515-1.166 2.482-1.167z"/>
        <circle cx="16" cy="16" r="16" stroke="#FFF"/>
    </g>
</svg>
