<svg xmlns="http://www.w3.org/2000/svg" width="56" height="56" viewBox="0 0 56 56">
    <defs>
        <filter id="prefix__a" width="150%" height="150%" x="-25%" y="-25%" filterUnits="objectBoundingBox">
            <feOffset dy="2" in="SourceAlpha" result="shadowOffsetOuter1"/>
            <feGaussianBlur in="shadowOffsetOuter1" result="shadowBlurOuter1" stdDeviation="2"/>
            <feColorMatrix in="shadowBlurOuter1" result="shadowMatrixOuter1" values="0 0 0 0 0 0 0 0 0 0 0 0 0 0 0 0 0 0 0.0994591346 0"/>
            <feMerge>
                <feMergeNode in="shadowMatrixOuter1"/>
                <feMergeNode in="SourceGraphic"/>
            </feMerge>
        </filter>
    </defs>
    <g fill="none" fill-rule="evenodd" filter="url(#prefix__a)" transform="translate(4 4)">
        <path fill="#FE2D6B" fill-opacity=".928" d="M24 0c13.234 0 24 10.766 24 24 0 4.96-1.506 9.71-4.359 13.762l1.768 9.112c.064.332-.052.672-.308.894-.174.152-.395.231-.62.231-.103 0-.207-.016-.307-.051l-8.58-2.956C32.042 46.961 28.044 48 24 48 10.766 48 0 37.233 0 24S10.766 0 24 0z"/>
        <g stroke="#FFF">
            <path d="M17.775 13.975v4.69c0 .727-.096 1.436-.27 2.12v.008c-.947 3.66-4.287 6.36-8.26 6.36-4.714 0-8.532-3.798-8.532-8.488 0-.814.122-1.61.34-2.354.347 1.012 1.417 1.618 2.486 1.376 1.14-.26 1.87-1.402 1.6-2.535l-.104-.476c.252 1.107 1.365 1.825 2.487 1.61-.756-.416-1.148-1.126-1.148-1.749v-.562c0-1.757.766-1.584 1.592-1.584h8.218c1.148 0 1.574.632 1.591 1.584z" transform="translate(13.5 10.875)"/>
            <path d="M6.374 13.975v.562c0 .623.392 1.333 1.148 1.748-1.122.216-2.226-.493-2.487-1.61l-.678-2.967-.078-.346-.105-.476c-.26-1.134.461-2.276 1.6-2.536.157-.034.322-.052.47-.052.974 0 1.86.667 2.087 1.644l.06.277.497 2.164h-.931c-.809.008-1.583-.165-1.583 1.592z" transform="translate(13.5 10.875)"/>
            <path d="M3.548 17.696c-1.07.242-2.14-.364-2.487-1.376-.026-.07-.052-.139-.07-.217l-.87-3.79c-.26-1.133.462-2.275 1.6-2.535.157-.035.323-.052.47-.052.974 0 1.861.666 2.088 1.644l.078.346h.008l.679 2.968.104.476c.261 1.134-.46 2.276-1.6 2.536zM12.051 16.699L12.041 16.699M13.592 2.18v10.211h-4.27V2.181c0-1.169.966-2.13 2.14-2.13.59 0 1.121.243 1.504.624.391.39.626.917.626 1.506zM8.453 23.078v-1.904c0-1.955 1.548-4.465 5.06-4.525 0 0-5.408.294-5.99-.355M20.967 3.15c0 .181-.027.372-.079.562l-3.113 11.163v-.892c-.017-.951-.443-1.583-1.591-1.583h-.13c-.036-.009-.062-.009-.096-.009h-.635c-.035 0-.061 0-.096.009h-1.183l.166-.623 2.626-9.423c.4-.987 1.496-1.55 2.548-1.264.956.269 1.583 1.125 1.583 2.06z" transform="translate(13.5 10.875)"/>
        </g>
    </g>
</svg>
