<svg xmlns="http://www.w3.org/2000/svg" width="225" height="38" viewBox="0 0 225 38">
    <g fill="#353536" fill-rule="evenodd">
        <text font-family="Raleway-Light, Raleway" font-size="28" font-weight="300">
            <tspan x="149" y="27">becas</tspan>
        </text>
        <path d="M139 38c-.552 0-1-.381-1-.851V.85c0-.47.448-.851 1-.851s1 .381 1 .851V37.15c0 .47-.448.851-1 .851M2.502 26.319C.834 24.53 0 21.979 0 18.663V6h4.855v12.47c0 4.048 1.558 6.072 4.675 6.072 1.518 0 2.677-.49 3.477-1.47.798-.98 1.198-2.514 1.198-4.603V6H19v12.663c0 3.317-.835 5.868-2.502 7.656C14.829 28.106 12.497 29 9.5 29c-2.996 0-5.33-.894-6.998-2.681M34.3 23.503c.744-.876 1.116-2.049 1.116-3.52 0-1.47-.372-2.642-1.117-3.518-.744-.876-1.697-1.314-2.857-1.314-1.16 0-2.113.438-2.857 1.314-.745.876-1.117 2.049-1.117 3.519 0 1.47.372 2.643 1.117 3.519.744.875 1.697 1.313 2.857 1.313 1.16 0 2.113-.438 2.857-1.313m1.886-11.384c1.19.746 2.122 1.795 2.8 3.146C39.66 16.616 40 18.189 40 19.984c0 1.795-.339 3.368-1.015 4.719-.678 1.351-1.61 2.4-2.8 3.146-1.19.746-2.51 1.119-3.96 1.119-1.992 0-3.559-.703-4.7-2.108V35H23V11.26h4.323v2.01c1.12-1.513 2.756-2.27 4.902-2.27 1.45 0 2.77.373 3.96 1.119M54.472 22.406c.752-.78 1.128-1.801 1.128-3.064 0-1.262-.376-2.283-1.128-3.064-.753-.78-1.72-1.171-2.9-1.171-1.182 0-2.153.39-2.915 1.171s-1.143 1.802-1.143 3.064c0 1.263.381 2.284 1.143 3.064.762.782 1.733 1.171 2.914 1.171s2.148-.39 2.9-1.17zM60 11.256v14.375c0 3.166-.733 5.518-2.2 7.06C56.333 34.23 54.19 35 51.371 35c-1.485 0-2.895-.203-4.228-.61-1.334-.406-2.439-.994-3.314-1.764l1.771-3.594c.647.599 1.467 1.075 2.457 1.428.99.353 1.981.53 2.971.53 1.544 0 2.681-.391 3.415-1.172.733-.78 1.1-1.962 1.1-3.545v-.738c-1.162 1.433-2.781 2.15-4.857 2.15-1.41 0-2.7-.348-3.872-1.043-1.171-.695-2.1-1.674-2.785-2.936C43.343 22.444 43 20.99 43 19.342c0-1.647.343-3.101 1.029-4.363.685-1.262 1.614-2.24 2.785-2.936C47.986 11.348 49.276 11 50.686 11c2.228 0 3.923.824 5.086 2.47v-2.214H60zM71.722 11.66c.947-.44 2.04-.66 3.278-.66v4.747c-.52-.044-.868-.066-1.048-.066-1.337 0-2.385.412-3.143 1.236-.76.825-1.138 2.06-1.138 3.71V29H65V11.264h4.461v2.34c.559-.857 1.312-1.505 2.26-1.945M86.13 24.987c.606-.4 1.036-.99 1.29-1.77v-1.788h-3.14c-1.879 0-2.818.683-2.818 2.047 0 .65.23 1.165.69 1.544.459.379 1.09.568 1.893.568.783 0 1.477-.2 2.084-.6m3.904-12.055c1.31 1.29 1.967 3.233 1.967 5.832v9.975h-4.286v-2.177C86.853 28.188 85.248 29 82.9 29c-1.213 0-2.265-.228-3.155-.683-.891-.455-1.57-1.082-2.04-1.884-.47-.801-.705-1.71-.705-2.73 0-1.624.553-2.901 1.658-3.833 1.106-.931 2.813-1.397 5.123-1.397h3.64c0-1.105-.304-1.955-.91-2.55-.607-.596-1.517-.894-2.73-.894-.842 0-1.669.146-2.48.439-.813.292-1.503.687-2.07 1.185l-1.644-3.541c.861-.671 1.893-1.191 3.097-1.56 1.203-.368 2.441-.552 3.713-.552 2.446 0 4.325.644 5.636 1.933M106.43 23.608c.754-.864 1.131-2.021 1.131-3.472 0-1.45-.377-2.608-1.13-3.472-.755-.864-1.703-1.296-2.844-1.296-1.16 0-2.117.432-2.872 1.296-.754.864-1.131 2.021-1.131 3.472 0 1.45.377 2.608 1.131 3.472.755.864 1.711 1.296 2.872 1.296 1.141 0 2.089-.432 2.843-1.296zM112 5v23.744h-4.323V26.76c-1.121 1.494-2.746 2.24-4.873 2.24-1.47 0-2.8-.362-3.99-1.088-1.189-.725-2.122-1.76-2.799-3.104S95 21.907 95 20.136c0-1.77.338-3.328 1.015-4.672.677-1.344 1.61-2.379 2.8-3.104 1.19-.725 2.519-1.088 3.989-1.088 1.991 0 3.548.693 4.67 2.08V5H112zM120.967 15.809c-.72.65-1.16 1.538-1.32 2.664h7.945c-.16-1.105-.6-1.987-1.319-2.648-.72-.66-1.6-.991-2.638-.991-1.06 0-1.95.325-2.668.975m10.943 5.62h-12.203c.22 1.084.74 1.94 1.559 2.568.82.628 1.84.941 3.059.941.839 0 1.583-.135 2.233-.406.65-.27 1.254-.698 1.814-1.283l2.489 2.924c-1.52 1.885-3.739 2.827-6.657 2.827-1.819 0-3.428-.384-4.827-1.154-1.4-.768-2.478-1.835-3.238-3.2C115.379 23.282 115 21.733 115 20c0-1.711.375-3.254 1.124-4.63.75-1.375 1.779-2.448 3.088-3.217 1.31-.769 2.774-1.153 4.393-1.153 1.579 0 3.008.368 4.287 1.105 1.279.736 2.284 1.792 3.013 3.167.73 1.376 1.095 2.973 1.095 4.793 0 .065-.03.52-.09 1.364"/>
    </g>
</svg>
