<svg xmlns="http://www.w3.org/2000/svg" xmlns:xlink="http://www.w3.org/1999/xlink" width="56" height="56" viewBox="0 0 56 56">
    <defs>
        <filter id="prefix__a" width="183.3%" height="183.3%" x="-41.7%" y="-37.5%" filterUnits="objectBoundingBox">
            <feOffset dy="2" in="SourceAlpha" result="shadowOffsetOuter1"/>
            <feGaussianBlur in="shadowOffsetOuter1" result="shadowBlurOuter1" stdDeviation="2"/>
            <feColorMatrix in="shadowBlurOuter1" result="shadowMatrixOuter1" values="0 0 0 0 0 0 0 0 0 0 0 0 0 0 0 0 0 0 0.0994591346 0"/>
            <feMerge>
                <feMergeNode in="shadowMatrixOuter1"/>
                <feMergeNode in="SourceGraphic"/>
            </feMerge>
        </filter>
        <filter id="prefix__b" width="154.2%" height="154.2%" x="-27.1%" y="-22.9%" filterUnits="objectBoundingBox">
            <feOffset dy="2" in="SourceAlpha" result="shadowOffsetOuter1"/>
            <feGaussianBlur in="shadowOffsetOuter1" result="shadowBlurOuter1" stdDeviation="4"/>
            <feColorMatrix in="shadowBlurOuter1" values="0 0 0 0 0 0 0 0 0 0 0 0 0 0 0 0 0 0 0.0670618444 0"/>
        </filter>
        <path id="prefix__c" d="M24 0C10.766 0 0 10.766 0 24c0 4.96 1.506 9.71 4.359 13.762L2.59 46.874c-.064.332.052.672.308.894.174.152.395.231.62.231.103 0 .207-.016.307-.051l8.58-2.956C15.958 46.961 19.956 48 24 48 37.234 48 48 37.233 48 24S37.234 0 24 0z"/>
    </defs>
    <g fill="none" fill-rule="evenodd">
        <g filter="url(#prefix__a)" transform="translate(4 4)">
            <g transform="matrix(-1 0 0 1 48 0)">
                <use fill="#000" filter="url(#prefix__b)" xlink:href="#prefix__c"/>
                <use fill="#4A3FEC" xlink:href="#prefix__c"/>
            </g>
        </g>
        <g stroke="#FFF">
            <path d="M10.45 23.713v-1.848c0-1.898 1.495-4.334 4.888-4.393 0 0-4.972.176-5.787-.344 0 0-.765-.429-.991-1.21M11.273 13.356h-.882c-1.353 0-1.89-.202-1.89 1.89v.353c0 .109.017.218.05.319-.495-.202-.915-.588-1.134-1.117l-.798-1.932L3.2 4.553c-.428-1.042.076-2.251 1.118-2.671l.025-.009c1.041-.428 2.251.076 2.671 1.117l3.47 8.434.747 1.814c.017.034.033.068.042.118zM21.95 3.444L19.47 14.566c-.176-1.168-.873-1.21-1.848-1.21h-2.108l.16-.748h.008l2.243-10.063.008-.033c.008-.017.008-.026.008-.042.278-1.042 1.344-1.706 2.411-1.462l.067.017c1.084.243 1.773 1.327 1.53 2.419z" transform="translate(17 14)"/>
            <path d="M17.942 2.47c0 .016 0 .025-.008.042l-.008.033-2.252 10.063-.16.748H11.29l.445-1.982 2.175-9.761C14.154.52 15.246-.168 16.33.076l.067.016c1.075.236 1.764 1.302 1.545 2.378z" transform="translate(17 14)"/>
            <path d="M19.513 15.238l-.084 4.258c0 4.511-3.444 7.896-7.938 8.148-4.502.252-8.601-3.603-8.534-8.114.017-1.554.327-2.41.327-2.41C3.268 17.076.218 8.155.218 8.155c-.428-1.05.076-2.26 1.126-2.696.252-.1.512-.151.781-.151.815 0 1.588.479 1.907 1.277l2.587 6.283c.009-.009.009-.009.017-.009l.798 1.932c.218.53.638.924 1.134 1.118-.034-.101-.05-.21-.05-.32v-.352c0-2.092.529-1.89 1.89-1.89h.882c.008.008.008 0 .008 0h6.334c.974 0 1.671.042 1.848 1.21.016.192.033.42.033.68z" transform="translate(17 14)"/>
        </g>
    </g>
</svg>
