<svg xmlns="http://www.w3.org/2000/svg" width="24" height="24" viewBox="0 0 24 24">
    <path fill="#FFF" d="M12 3c-4.963 0-9 4.037-9 9 0 1.86.565 3.64 1.635 5.16l-.664 3.418c-.023.124.02.252.116.335.065.057.148.087.232.087.04 0 .078-.006.116-.02l3.217-1.108C8.984 20.61 10.484 21 12 21c4.963 0 9-4.038 9-9s-4.037-9-9-9zm5.166 13.135l-.022.022c-.297.299-1.084 1.091-2.287 1.091-1.198 0-3.86-.922-5.305-2.367-1.363-1.364-2.67-2.82-2.988-4.223-.306-1.347-.269-2.016.15-2.64.165-.287.716-1.162 1.31-1.235.852-.104 1.39.042 1.6.437.168.314.837 1.95.912 2.135.02.05.187.493-.097.934-.187.29-.557.671-.652.768-.027.045-.047.118.012.199.045.06.093.13.148.207.236.335.592.843 1.207 1.456.631.633 1.813 1.12 2.076 1.223.013-.001.026-.005.032-.008.078-.08.538-.644.837-1.018.138-.178.54-.46 1.051-.226.38.173 1.928.944 2.084 1.021.161.072.404.285.404.694 0 .21-.084 1.141-.472 1.53z"/>
</svg>
