<svg xmlns="http://www.w3.org/2000/svg" xmlns:xlink="http://www.w3.org/1999/xlink" width="496" height="469" viewBox="0 0 496 469">
    <defs>
        <filter id="prefix__a" width="123.5%" height="125.1%" x="-14%" y="-10.2%" filterUnits="objectBoundingBox">
            <feOffset dy="2" in="SourceAlpha" result="shadowOffsetOuter1"/>
            <feGaussianBlur in="shadowOffsetOuter1" result="shadowBlurOuter1" stdDeviation="10"/>
            <feColorMatrix in="shadowBlurOuter1" result="shadowMatrixOuter1" values="0 0 0 0 0 0 0 0 0 0 0 0 0 0 0 0 0 0 0.150486233 0"/>
            <feMerge>
                <feMergeNode in="shadowMatrixOuter1"/>
                <feMergeNode in="SourceGraphic"/>
            </feMerge>
        </filter>
        <filter id="prefix__b" width="117.1%" height="127.8%" x="-8.5%" y="-13.9%" filterUnits="objectBoundingBox">
            <feOffset dy="2" in="SourceAlpha" result="shadowOffsetOuter1"/>
            <feGaussianBlur in="shadowOffsetOuter1" result="shadowBlurOuter1" stdDeviation="6"/>
            <feColorMatrix in="shadowBlurOuter1" result="shadowMatrixOuter1" values="0 0 0 0 0 0 0 0 0 0 0 0 0 0 0 0 0 0 0.5 0"/>
            <feMerge>
                <feMergeNode in="shadowMatrixOuter1"/>
                <feMergeNode in="SourceGraphic"/>
            </feMerge>
        </filter>
        <filter id="prefix__c" width="115.6%" height="158.3%" x="-7.8%" y="-20.8%" filterUnits="objectBoundingBox">
            <feOffset dy="2" in="SourceAlpha" result="shadowOffsetOuter1"/>
            <feGaussianBlur in="shadowOffsetOuter1" result="shadowBlurOuter1" stdDeviation="2"/>
            <feColorMatrix in="shadowBlurOuter1" values="0 0 0 0 0 0 0 0 0 0 0 0 0 0 0 0 0 0 0.0539499563 0"/>
        </filter>
        <rect id="prefix__d" width="90" height="24" x="202" y="146.969" rx="12"/>
    </defs>
    <g fill="none" fill-rule="evenodd" filter="url(#prefix__a)" transform="translate(26 18)">
        <g transform="translate(70.534)">
            <rect width="379.12" height="390.141" fill="#162038" rx="6"/>
            <text font-family="Roboto-Medium, Roboto" font-size="10" font-weight="400" opacity=".7">
                <tspan x="38.573" y="29.838" fill="#00FAD7"> &lt;!-- Trigger/Open The Modal --&gt;</tspan>  <tspan x="38.573" y="43.838" fill="#0167FB">&lt;</tspan> <tspan x="43.656" y="43.838" fill="#FDC700">button</tspan> <tspan x="73.266" y="43.838" fill="#FE2DA0"> id</tspan> <tspan x="84.013" y="43.838" fill="#0167FB">=&quot;myBtn&quot;&gt;</tspan> <tspan x="130.439" y="43.838" fill="#FBFBFD">Open Modal&lt;/</tspan> <tspan x="193.676" y="43.838" fill="#FDC700">button</tspan> <tspan x="223.285" y="43.838" fill="#FBFBFD">&gt;</tspan>  <tspan x="38.573" y="71.838" fill="#00FAD7">&lt;!-- The Modal --&gt;</tspan>  <tspan x="38.573" y="85.838" fill="#0167FB">&lt;</tspan> <tspan x="43.656" y="85.838" fill="#FBFBFD">div </tspan> <tspan x="59.472" y="85.838" fill="#FE2DA0">id</tspan> <tspan x="67.729" y="85.838" fill="#0167FB">=&quot;myModal&quot;</tspan> <tspan x="121.689" y="85.838" fill="#FBFBFD"> class</tspan> <tspan x="147.86" y="85.838" fill="#0167FB">=&quot;modal&quot;&gt;</tspan>  <tspan x="38.573" y="99.838" fill="#FBFBFD"> </tspan> <tspan x="41.064" y="99.838" fill="#0167FB"> &lt;</tspan> <tspan x="48.637" y="99.838" fill="#FBFBFD">!-- Modal content --&gt;</tspan> <tspan x="38.573" y="113.838" fill="#FBFBFD"> </tspan> <tspan x="43.554" y="113.838" fill="#0167FB">&lt;</tspan> <tspan x="48.637" y="113.838" fill="#FBFBFD">div class</tspan> <tspan x="88.134" y="113.838" fill="#0167FB">=&quot;modal-content&quot;&gt;</tspan>  <tspan x="38.573" y="127.838" fill="#FBFBFD"> </tspan> <tspan x="51.024" y="127.838" fill="#0167FB"> &lt;</tspan> <tspan x="58.598" y="127.838" fill="#FBFBFD">span class</tspan> <tspan x="106.737" y="127.838" fill="#0167FB">=&quot;close&quot;&gt;</tspan> <tspan x="147.636" y="127.838" fill="#FBFBFD">&amp;times;&lt;/span&gt;</tspan> <tspan x="38.573" y="141.838" fill="#FBFBFD"> </tspan> <tspan x="46.044" y="141.838" fill="#00FAD7"> &lt;p&gt;</tspan> <tspan x="69.467" y="141.838" fill="#FBFBFD">Some text in the modal..</tspan> <tspan x="179.018" y="141.838" fill="#00FAD7">&lt;/p&gt;</tspan>  <tspan x="38.573" y="155.838" fill="#0167FB"> &lt;</tspan> <tspan x="48.637" y="155.838" fill="#FBFBFD">/div</tspan> <tspan x="66.059" y="155.838" fill="#0167FB">&gt;</tspan>   <tspan x="38.573" y="183.838" fill="#0167FB">&lt;</tspan> <tspan x="43.656" y="183.838" fill="#FBFBFD">/div</tspan> <tspan x="61.078" y="183.838" fill="#0167FB">&gt;</tspan> <tspan x="38.573" y="197.838" fill="#0167FB">.modal {</tspan>  <tspan x="38.573" y="211.838" fill="#FDC700"> overflow: </tspan> <tspan x="86.913" y="211.838" fill="#FBFBFD">auto; /* Enable scroll if needed */</tspan> <tspan x="38.573" y="225.838" fill="#FBFBFD"> </tspan> <tspan x="43.554" y="225.838" fill="#FDC700">background-color:</tspan> <tspan x="124.633" y="225.838" fill="#FBFBFD"> rgb(1,103,251); /* Fallback color */</tspan> <tspan x="38.573" y="239.838" fill="#0167FB">.modal-content {</tspan>  <tspan x="38.573" y="253.838" fill="#FBFBFD"> </tspan> <tspan x="43.554" y="253.838" fill="#FDC700">background-color:</tspan> <tspan x="124.633" y="253.838" fill="#FBFBFD"> #fefefe;</tspan> <tspan x="38.573" y="267.838" fill="#FBFBFD"> </tspan> <tspan x="43.554" y="267.838" fill="#FDC700">margin:</tspan> <tspan x="77.753" y="267.838" fill="#FBFBFD"> 15% auto; /* 15% from the top and centered */</tspan> <tspan x="38.573" y="281.838" fill="#FBFBFD"> </tspan> <tspan x="43.554" y="281.838" fill="#FDC700">padding:</tspan> <tspan x="82.587" y="281.838" fill="#FBFBFD"> 20px;</tspan> <tspan x="38.573" y="295.838" fill="#FBFBFD"> </tspan> <tspan x="43.554" y="295.838" fill="#FDC700">border:</tspan> <tspan x="74.662" y="295.838" fill="#FBFBFD"> 1px solid #888;</tspan> <tspan x="38.573" y="309.838" fill="#FBFBFD"> </tspan> <tspan x="43.554" y="309.838" fill="#FDC700">width:</tspan> <tspan x="71.103" y="309.838" fill="#FBFBFD"> 80%; /* Could be more or less, depending on screen size */</tspan> <tspan x="38.573" y="323.838" fill="#FBFBFD">} </tspan>
            </text>
            <path fill="#5D5D5F" d="M29.757 0H30.859V390.141H29.757zM38.573 103.597H39.675V186.254H38.573zM47.39 135.558H48.492V157.6H47.39z" opacity=".2"/>
            <text fill="#FBFBFD" font-family="RobotoMono-Medium, Roboto Mono" font-size="10" font-weight="400" opacity=".2">
                <tspan x="8.817" y="34.866">41</tspan> <tspan x="8.817" y="48.866">42</tspan> <tspan x="8.817" y="62.866">43</tspan> <tspan x="8.817" y="76.866">44</tspan> <tspan x="8.817" y="90.866">45</tspan> <tspan x="8.817" y="104.866">46</tspan> <tspan x="8.817" y="118.866">47</tspan> <tspan x="8.817" y="132.866">48</tspan> <tspan x="8.817" y="146.866">49</tspan> <tspan x="8.817" y="160.866">50</tspan> <tspan x="8.817" y="174.866">51</tspan> <tspan x="8.817" y="188.866">52</tspan> <tspan x="8.817" y="202.866">53</tspan> <tspan x="8.817" y="216.866">54</tspan> <tspan x="8.817" y="230.866">55</tspan> <tspan x="8.817" y="244.866">56</tspan> <tspan x="8.817" y="258.866">57</tspan> <tspan x="8.817" y="272.866">58</tspan> <tspan x="8.817" y="286.866">59</tspan> <tspan x="8.817" y="300.866">60</tspan> <tspan x="8.817" y="314.866">61</tspan> <tspan x="8.817" y="328.866">62</tspan> <tspan x="8.817" y="342.866">63</tspan> <tspan x="8.817" y="356.866">64</tspan>
            </text>
        </g>
        <g filter="url(#prefix__b)" transform="translate(0 227.031)">
            <rect width="316" height="194" fill="#4A3FEC" rx="6"/>
            <use fill="#000" filter="url(#prefix__c)" xlink:href="#prefix__d"/>
            <use fill="#00FAD7" xlink:href="#prefix__d"/>
            <path fill="#D8D8D8" style="mix-blend-mode:multiply" d="M37 28H279V52H37zM37 61.969H125V77.969H37z" opacity=".9"/>
        </g>
        <path fill="#FBFBFD" d="M37 315H55V333H37z" opacity=".2"/>
    </g>
</svg>
